# xmcd
#
# Track frame offsets: 
#        183
#        5198
#        16085
#        27503
#        41275
#        53060
#        65050
#        79135
#        86223
#        100133
#        109693
#        116575
#        123328
#        131418
#        146338
#        155053
#        167580
#        177743
#        196208
#
# Disc length: 2835 seconds
#
# Revision: 0
# Processed by: cddbd v1.5.2PL0 Copyright (c) Steve Scherf et al.
# Submitted via: ExactAudioCopy v0.95b4
#
DISCID=020b1113
DTITLE=Prager Kirmesorchester - Lieder aus Kafkas Prag
DYEAR=1992
DGENRE=Country
TTITLE0=Wir san die Prager Wanzen
TTITLE1=Allmutter Prag
TTITLE2=Schlaraffia
TTITLE3=An der Moldau grünem Strand
TTITLE4=Prag, das ist ein schönes Städtchen
TTITLE5=Zu Tschaslau
TTITLE6=Prager Wanderlied
TTITLE7=Die Hussiten zogen vor Naumburg
TTITLE8=Die Prager Schlacht
TTITLE9=Wir sind die Musikanten
TTITLE10=O, du lieber Augustin
TTITLE11=Wenn die Soldaten durch die Stadt marschieren
TTITLE12=Wo der Brauer
TTITLE13=Heinrich und Wilhelmine
TTITLE14=Radetzki, Radezki...
TTITLE15=General Laudon
TTITLE16=Reim di oder i friss di
TTITLE17=Rinaldo Rinaldini
TTITLE18=Ein Hund lief in die Küche
EXTD=
EXTT0=
EXTT1=
EXTT2=
EXTT3=
EXTT4=
EXTT5=
EXTT6=
EXTT7=
EXTT8=
EXTT9=
EXTT10=
EXTT11=
EXTT12=
EXTT13=
EXTT14=
EXTT15=
EXTT16=
EXTT17=
EXTT18=
PLAYORDER=
